#!OML:ASF H:\Terrain\Patient Classification 1\Walking\steve\steve.ASF
:FULLY-SPECIFIED
:DEGREES
109
root 8.88674 16.1222 -13.0826 5.92391 -4.49228 -2.75069
lowerback 0.213335 3.01062 4.12824
upperback -2.93829 4.16312 2.48419
thorax -3.03944 2.00505 0.136972
lowerneck -11.121 -0.679479 -3.95575
upperneck 12.4529 -0.0216398 -1.53634
head 5.59608 -0.309752 0.160389
rclavicle 1.07406e-014 7.95139e-015
rhumerus -30.5197 -15.9986 -81.016
rradius 25.522
rwrist 0.0150771
rhand -19.9887 -39.175
rfingers 7.12502
rthumb 6.35069 -69.0598
lclavicle 1.07406e-014 7.95139e-015
lhumerus -35.6816 1.37468 89.7527
lradius 24.5295
lwrist 19.1869
lhand -22.7757 -11.8658
lfingers 7.12502
lthumb 3.65972 18.0825
rfemur -17.9061 -1.21844 29.6662
rtibia 33.6571
rfoot -17.0815 13.3069
rtoes 9.02155
lfemur -30.9781 7.8985 -18.2568
ltibia 65.1948
lfoot -10.0955 4.31246
ltoes -14.3847
110
root 8.88831 16.1188 -12.875 6.1945 -4.80302 -2.7044
lowerback 0.1273 3.07152 4.06586
upperback -3.0955 4.24305 2.39961
thorax -3.14972 2.04219 0.0830743
lowerneck -10.8905 -0.616221 -3.80883
upperneck 12.3027 0.0262578 -1.55653
head 5.50885 -0.27695 0.134785
rclavicle 3.30107e-014 -4.77083e-015
rhumerus -28.9514 -14.5666 -82.0652
rradius 26.7986
rwrist -1.90136
rhand -19.3301 -37.761
rfingers 7.12502
rthumb 6.98655 -67.6257
lclavicle 3.30107e-014 -4.77083e-015
lhumerus -36.9085 3.23981 88.8106
lradius 22.292
lwrist 16.1558
lhand -22.4629 -11.9825
lfingers 7.12502
lthumb 3.96178 17.9604
rfemur -17.1357 -1.49658 29.5889
rtibia 33.2872
rfoot -17.7877 13.5095
rtoes 6.08021
lfemur -32.4152 7.81761 -18.4671
ltibia 63.7292
lfoot -11.4695 4.3319
ltoes -16.0423
111
root 8.89088 16.1227 -12.6589 6.30091 -5.1569 -2.70454
lowerback 0.02887 3.18357 4.07576
upperback -3.12473 4.38503 2.30101
thorax -3.11231 2.11168 -0.021412
lowerneck -10.9331 -0.581841 -3.67681
upperneck 12.3942 0.04497 -1.48601
head 5.54391 -0.258441 0.136792
rclavicle 1.92324e-014 5.56597e-015
rhumerus -27.3009 -13.2059 -82.9805
rradius 28.2165
rwrist -3.94895
rhand -18.4644 -37.6128
rfingers 7.12502
rthumb 7.82208 -67.4481
lclavicle 1.92324e-014 5.56597e-015
lhumerus -37.9717 5.29985 87.5136
lradius 19.9558
lwrist 12.7077
lhand -22.3045 -12.2075
lfingers 7.12502
lthumb 4.1147 17.7325
rfemur -16.1432 -2.05097 29.5246
rtibia 32.8348
rfoot -18.2984 13.8746
rtoes 4.3109
lfemur -33.5061 7.72444 -18.5459
ltibia 61.9163
lfoot -12.0367 4.34303
ltoes -10.8969
112
root 8.89882 16.1325 -12.4411 6.38944 -5.51772 -2.94775
lowerback -0.179376 3.29209 4.47614
upperback -2.95092 4.51086 2.19973
thorax -2.7739 2.17032 -0.328488
lowerneck -11.3825 -0.520469 -3.49651
upperneck 12.5258 0.103258 -1.35966
head 5.65975 -0.216719 0.150861
rclavicle 1.06412e-014 1.51076e-014
rhumerus -25.1589 -12.0152 -83.9269
rradius 29.4986
rwrist -5.5657
rhand -18.2602 -39.0105
rfingers 7.12502
rthumb 8.01921 -68.8383
lclavicle 1.06412e-014 1.51076e-014
lhumerus -38.7674 7.09069 86.0818
lradius 17.9149
lwrist 9.44927
lhand -21.6243 -11.5873
lfingers 7.12502
lthumb 4.77159 18.339
rfemur -15.0004 -2.78448 29.6225
rtibia 32.138
rfoot -17.9362 14.9699
rtoes 5.92395
lfemur -34.3905 7.53006 -18.2989
ltibia 59.834
lfoot -12.6779 4.20358
ltoes -4.41341
113
root 8.90955 16.1371 -12.2277 6.51285 -5.76513 -3.36742
lowerback -0.157336 3.30879 4.994
upperback -2.9326 4.54103 2.23719
thorax -2.73183 2.17366 -0.57576
lowerneck -11.4496 -0.426303 -3.35251
upperneck 12.4552 0.217324 -1.43151
head 5.6477 -0.158819 0.114076
rclavicle 4.54906e-014 3.18055e-014
rhumerus -23.2836 -10.6852 -84.7223
rradius 30.8751
rwrist -7.29374
rhand -17.8995 -39.5275
rfingers 7.12502
rthumb 8.36735 -69.3418
lclavicle 4.54906e-014 3.18055e-014
lhumerus -39.8948 9.25694 84.3819
lradius 15.8298
lwrist 5.8276
lhand -20.213 -11.3968
lfingers 7.12502
lthumb 6.13415 18.4944
rfemur -13.757 -3.41604 29.8985
rtibia 31.0698
rfoot -17.1384 15.9043
rtoes 8.56919
lfemur -35.2817 7.19903 -17.791
ltibia 57.5562
lfoot -13.6531 4.07696
ltoes -1.96017
114
root 8.91674 16.1702 -12.0074 6.48015 -6.13176 -3.40532
lowerback 0.103717 3.33908 4.95335
upperback -3.07618 4.60871 2.29785
thorax -3.03307 2.20066 -0.514254
lowerneck -10.9257 -0.311009 -3.34113
upperneck 12.2761 0.369856 -1.61468
head 5.50223 -0.0915548 0.06767
rclavicle -2.2121e-014 1.27222e-014
rhumerus -21.9243 -9.37287 -85.1567
rradius 32.1793
rwrist -9.10509
rhand -17.1336 -40.6005
rfingers 7.12502
rthumb 9.10639 -70.3839
lclavicle -2.2121e-014 1.27222e-014
lhumerus -41.6831 11.5095 82.5336
lradius 14.0767
lwrist 2.04678
lhand -19.0468 -11.1447
lfingers 7.12502
lthumb 7.25993 18.7108
rfemur -12.3049 -3.75942 29.7178
rtibia 29.9154
rfoot -16.6439 16.3665
rtoes 9.46165
lfemur -35.9932 6.83291 -17.6338
ltibia 55.0115
lfoot -14.2456 4.75753
ltoes -5.4256
115
root 8.92034 16.2211 -11.7811 6.39467 -6.65915 -3.18692
lowerback 0.172186 3.46102 4.74483
upperback -3.04587 4.76758 2.1747
thorax -3.03855 2.28389 -0.532157
lowerneck -10.7906 -0.216042 -3.37923
upperneck 12.2191 0.475484 -1.46108
head 5.45985 -0.0289961 0.130409
rclavicle -2.75814e-015 9.54166e-015
rhumerus -20.462 -8.14847 -85.6291
rradius 33.4626
rwrist -10.8181
rhand -16.374 -41.9915
rfingers 7.12502
rthumb 9.83935 -71.7417
lclavicle -2.75814e-015 9.54166e-015
lhumerus -43.6446 13.3432 80.6241
lradius 13.2985
lwrist -1.35273
lhand -18.689 -10.4598
lfingers 7.12502
lthumb 7.60533 19.3835
rfemur -10.8845 -3.86031 29.2125
rtibia 29.0063
rfoot -16.4911 17.0589
rtoes 9.20405
lfemur -36.5196 6.40499 -17.7019
ltibia 52.2269
lfoot -14.4973 5.78384
ltoes -10.8616
116
root 8.92755 16.2043 -11.5623 6.41766 -7.13962 -3.36157
lowerback 0.0253517 3.60538 5.06444
upperback -2.787 4.93833 2.06213
thorax -2.64485 2.37119 -0.80499
lowerneck -11.3222 -0.20258 -3.42063
upperneck 12.1374 0.468668 -1.08168
head 5.52213 -0.00790679 0.255446
rclavicle -9.62164e-015 -7.15625e-015
rhumerus -18.3763 -7.14968 -86.1529
rradius 34.2791
rwrist -12.1554
rhand -16.7482 -39.179
rfingers 7.12502
rthumb 9.47832 -68.9459
lclavicle -9.62164e-015 -7.15625e-015
lhumerus -45.1159 14.9094 78.7528
lradius 12.551
lwrist -4.27003
lhand -18.9056 -10.419
lfingers 7.12502
lthumb 7.39623 19.4317
rfemur -9.69404 -4.02881 29.1344
rtibia 28.3455
rfoot -16.0779 18.1806
rtoes 10.5089
lfemur -36.8025 6.31314 -17.5272
ltibia 49.2432
lfoot -14.7635 6.29248
ltoes -13.2528
117
root 8.9372 16.1464 -11.3483 6.52776 -7.62312 -3.5913
lowerback -0.0148564 3.73368 5.31034
upperback -2.65551 5.10223 2.04343
thorax -2.45617 2.45302 -0.952107
lowerneck -11.6917 -0.184485 -3.29054
upperneck 11.9647 0.486164 -1.10585
head 5.53016 0.00605387 0.227983
rclavicle -4.6615e-014 -9.54166e-015
rhumerus -16.2209 -6.45812 -86.4946
rradius 34.8554
rwrist -12.6666
rhand -15.2443 -42.54
rfingers 7.12502
rthumb 10.9291 -72.2356
lclavicle -4.6615e-014 -9.54166e-015
lhumerus -46.863 16.6578 76.6645
lradius 11.7082
lwrist -7.13142
lhand -18.9549 -10.2218
lfingers 7.12502
lthumb 7.34867 19.6306
rfemur -8.72615 -4.41218 29.0682
rtibia 27.9005
rfoot -15.3167 19.476
rtoes 13.5805
lfemur -36.8428 6.53751 -17.4362
ltibia 46.0745
lfoot -15.2944 6.32717
ltoes -11.8892
118
root 8.94284 16.1259 -11.1319 6.637 -8.20251 -3.56091
lowerback 0.139901 3.86909 5.18891
upperback -2.78867 5.2978 1.97652
thorax -2.67489 2.54543 -0.973108
lowerneck -11.5825 -0.0970761 -2.91243
upperneck 11.9147 0.586505 -1.4885
head 5.49725 0.0455438 0.0545333
rclavicle -1.92976e-014 -1.11319e-014
rhumerus -14.8493 -5.65381 -86.7067
rradius 36.168
rwrist -12.7297
rhand -14.7644 -40.6798
rfingers 7.12502
rthumb 11.3919 -70.3503
lclavicle -1.92976e-014 -1.11319e-014
lhumerus -49.6005 19.4118 73.0771
lradius 11.0807
lwrist -11.5656
lhand -17.9905 -10.0408
lfingers 7.12502
lthumb 8.27949 19.7769
rfemur -7.84283 -4.6437 28.682
rtibia 27.6746
rfoot -15.1832 20.4585
rtoes 14.3196
lfemur -36.9175 6.6561 -17.4919
ltibia 42.757
lfoot -15.6785 6.60804
ltoes -12.8659
119
root 8.95104 16.123 -10.9096 6.69069 -8.71998 -3.47933
lowerback 0.252941 3.99944 5.10301
upperback -2.9022 5.48154 1.87432
thorax -2.84423 2.63219 -1.04651
lowerneck -11.4035 -0.0272098 -2.686
upperneck 11.8558 0.650069 -1.6067
head 5.44898 0.0801267 -0.0142692
rclavicle 4.1075e-015 -3.10104e-014
rhumerus -13.6262 -4.70603 -86.8329
rradius 37.143
rwrist -13.5331
rhand -15.7833 -41.8411
rfingers 7.12502
rthumb 10.4092 -71.5635
lclavicle 4.1075e-015 -3.10104e-014
lhumerus -52.2969 21.4087 69.5883
lradius 10.6412
lwrist -15.5152
lhand -16.4853 -10.4029
lfingers 7.12502
lthumb 9.73193 19.3522
rfemur -6.86583 -4.89566 28.2093
rtibia 27.3778
rfoot -15.3535 21.3997
rtoes 13.4447
lfemur -36.9612 6.5726 -17.4463
ltibia 39.3046
lfoot -15.7959 6.78213
ltoes -14.8008
120
root 8.96492 16.1091 -10.6856 6.72106 -9.07587 -3.4504
lowerback 0.231882 4.09309 5.09374
upperback -2.81364 5.5981 1.78853
thorax -2.7265 2.69352 -1.1248
lowerneck -11.6591 0.00634396 -2.51771
upperneck 11.8496 0.680095 -1.64131
head 5.49031 0.0985468 -0.05
rclavicle -3.59816e-014 -3.26007e-014
rhumerus -11.9061 -3.88306 -86.9714
rradius 37.1783
rwrist -15.0356
rhand -18.433 -39.8775
rfingers 7.12502
rthumb 7.85247 -69.7116
lclavicle -3.59816e-014 -3.26007e-014
lhumerus -53.7674 20.7517 69.2048
lradius 10.8449
lwrist -15.1803
lhand -15.5004 -10.0122
lfingers 7.12502
lthumb 10.6821 19.6962
rfemur -5.69965 -5.44583 27.7612
rtibia 26.7153
rfoot -15.1698 22.4641
rtoes 13.2304
lfemur -36.9465 6.50174 -17.3244
ltibia 35.7942
lfoot -15.7311 6.5489
ltoes -14.6897
121
root 8.97403 16.0896 -10.4632 6.83816 -9.47169 -3.6928
lowerback 0.146901 4.23576 5.28782
upperback -2.71126 5.77902 1.74973
thorax -2.54075 2.78468 -1.26017
lowerneck -11.9623 -0.0186941 -2.37634
upperneck 11.8492 0.629605 -1.62735
head 5.54147 0.0796822 -0.0726427
rclavicle 2.81405e-014 -3.97569e-015
rhumerus -10.1489 -3.50845 -87.1674
rradius 38.039
rwrist -14.9164
rhand -18.673 -42.6197
rfingers 7.12502
rthumb 7.62081 -72.4624
lclavicle 2.81405e-014 -3.97569e-015
lhumerus -54.9649 19.3142 69.9234
lradius 11.3299
lwrist -13.1573
lhand -15.132 -9.3346
lfingers 7.12502
lthumb 11.0375 20.3552
rfemur -4.46954 -5.75425 27.638
rtibia 25.8127
rfoot -14.7847 23.2321
rtoes 13.4472
lfemur -37.0014 6.38586 -16.7993
ltibia 32.288
lfoot -15.4935 6.50813
ltoes -15.4035
122
root 8.97789 16.072 -10.2368 7.10069 -10.0681 -4.08894
lowerback -0.0482515 4.40737 5.5352
upperback -2.72037 5.99746 1.79167
thorax -2.40878 2.89168 -1.33715
lowerneck -11.9059 -0.0335913 -2.46786
upperneck 11.6968 0.595594 -1.45128
head 5.48326 0.074372 -0.00529588
rclavicle 5.14977e-014 3.97569e-016
rhumerus -8.65795 -2.89791 -87.2839
rradius 38.4107
rwrist -14.9711
rhand -19.3342 -40.8738
rfingers 7.12502
rthumb 6.98257 -70.7386
lclavicle 5.14977e-014 3.97569e-016
lhumerus -56.5737 18.555 69.9378
lradius 11.6588
lwrist -11.8297
lhand -14.9141 -9.17088
lfingers 7.12502
lthumb 11.2476 20.5076
rfemur -3.33941 -5.59716 27.7098
rtibia 24.7814
rfoot -14.3166 23.7595
rtoes 13.7378
lfemur -37.0617 5.76882 -15.7279
ltibia 28.8862
lfoot -15.5691 6.88278
ltoes -14.382
